<mxfile host="app.diagrams.net" modified="2024-05-29T11:03:27.407Z" agent="Mozilla/5.0 (Windows NT 10.0; Win64; x64) AppleWebKit/537.36 (KHTML, like Gecko) Chrome/125.0.0.0 Safari/537.36" etag="Sf8V1-rOexNO6I4_2G1m" version="24.4.8" type="device">
  <diagram name="Page-1" id="1tvvQpXDPysI1bdSQ-jW">
    <mxGraphModel dx="794" dy="492" grid="1" gridSize="10" guides="1" tooltips="1" connect="1" arrows="1" fold="1" page="1" pageScale="1" pageWidth="850" pageHeight="1100" math="0" shadow="0">
      <root>
        <mxCell id="0" />
        <mxCell id="1" parent="0" />
        <mxCell id="GupI3PLRfqSvMy7flcSM-2" value="Dataset" style="shape=parallelogram;perimeter=parallelogramPerimeter;whiteSpace=wrap;html=1;fixedSize=1;" parent="1" vertex="1">
          <mxGeometry x="100" y="40" width="120" height="60" as="geometry" />
        </mxCell>
        <mxCell id="GupI3PLRfqSvMy7flcSM-5" value="" style="endArrow=classic;html=1;rounded=0;exitX=0.5;exitY=1;exitDx=0;exitDy=0;entryX=0.5;entryY=0;entryDx=0;entryDy=0;" parent="1" source="GupI3PLRfqSvMy7flcSM-2" target="GupI3PLRfqSvMy7flcSM-8" edge="1">
          <mxGeometry width="50" height="50" relative="1" as="geometry">
            <mxPoint x="90" y="260" as="sourcePoint" />
            <mxPoint x="160" y="200" as="targetPoint" />
          </mxGeometry>
        </mxCell>
        <mxCell id="GupI3PLRfqSvMy7flcSM-6" value="" style="edgeStyle=orthogonalEdgeStyle;rounded=0;orthogonalLoop=1;jettySize=auto;html=1;" parent="1" source="GupI3PLRfqSvMy7flcSM-8" target="GupI3PLRfqSvMy7flcSM-11" edge="1">
          <mxGeometry relative="1" as="geometry" />
        </mxCell>
        <mxCell id="GupI3PLRfqSvMy7flcSM-8" value="Normalisasi" style="rounded=0;whiteSpace=wrap;html=1;" parent="1" vertex="1">
          <mxGeometry x="100" y="160" width="120" height="60" as="geometry" />
        </mxCell>
        <mxCell id="GupI3PLRfqSvMy7flcSM-9" value="" style="edgeStyle=orthogonalEdgeStyle;rounded=0;orthogonalLoop=1;jettySize=auto;html=1;" parent="1" source="GupI3PLRfqSvMy7flcSM-11" target="GupI3PLRfqSvMy7flcSM-13" edge="1">
          <mxGeometry relative="1" as="geometry" />
        </mxCell>
        <mxCell id="GupI3PLRfqSvMy7flcSM-11" value="Algoritma&amp;nbsp;&lt;div&gt;Machine Learning&lt;/div&gt;" style="rounded=0;whiteSpace=wrap;html=1;" parent="1" vertex="1">
          <mxGeometry x="100" y="280" width="120" height="60" as="geometry" />
        </mxCell>
        <mxCell id="GupI3PLRfqSvMy7flcSM-12" value="" style="edgeStyle=orthogonalEdgeStyle;rounded=0;orthogonalLoop=1;jettySize=auto;html=1;" parent="1" source="GupI3PLRfqSvMy7flcSM-13" target="GupI3PLRfqSvMy7flcSM-16" edge="1">
          <mxGeometry relative="1" as="geometry" />
        </mxCell>
        <mxCell id="GupI3PLRfqSvMy7flcSM-13" value="Cluster Validation" style="rounded=0;whiteSpace=wrap;html=1;" parent="1" vertex="1">
          <mxGeometry x="100" y="400" width="120" height="60" as="geometry" />
        </mxCell>
        <mxCell id="GupI3PLRfqSvMy7flcSM-14" value="" style="edgeStyle=orthogonalEdgeStyle;rounded=0;orthogonalLoop=1;jettySize=auto;html=1;" parent="1" source="GupI3PLRfqSvMy7flcSM-16" target="GupI3PLRfqSvMy7flcSM-17" edge="1">
          <mxGeometry relative="1" as="geometry" />
        </mxCell>
        <mxCell id="GupI3PLRfqSvMy7flcSM-16" value="Evaluasi Best Model" style="rounded=0;whiteSpace=wrap;html=1;" parent="1" vertex="1">
          <mxGeometry x="100" y="520" width="120" height="60" as="geometry" />
        </mxCell>
        <mxCell id="GupI3PLRfqSvMy7flcSM-17" value="Visualisasi" style="rounded=0;whiteSpace=wrap;html=1;" parent="1" vertex="1">
          <mxGeometry x="100" y="640" width="120" height="60" as="geometry" />
        </mxCell>
        <mxCell id="YiNeve2ob_EBRdgUASXG-4" value="" style="shape=requiredInterface;html=1;verticalLabelPosition=bottom;sketch=0;direction=west;" parent="1" vertex="1">
          <mxGeometry x="260" y="45" width="20" height="50" as="geometry" />
        </mxCell>
        <mxCell id="YiNeve2ob_EBRdgUASXG-7" value="&lt;span style=&quot;forced-color-adjust: none; color: rgb(0, 0, 0); font-family: Helvetica; font-size: 12px; font-style: normal; font-variant-ligatures: normal; font-variant-caps: normal; font-weight: 400; letter-spacing: normal; orphans: 2; text-align: justify; text-indent: 0px; text-transform: none; widows: 2; word-spacing: 0px; -webkit-text-stroke-width: 0px; white-space: normal; background-color: initial; text-decoration-thickness: initial; text-decoration-style: initial; text-decoration-color: initial;&quot;&gt;Fitur: a&lt;/span&gt;&lt;span style=&quot;forced-color-adjust: none; color: rgb(0, 0, 0); font-family: Helvetica; font-size: 12px; font-style: normal; font-variant-ligatures: normal; font-variant-caps: normal; font-weight: 400; letter-spacing: normal; orphans: 2; text-align: justify; text-indent: 0px; text-transform: none; widows: 2; word-spacing: 0px; -webkit-text-stroke-width: 0px; white-space: normal; background-color: initial; text-decoration-thickness: initial; text-decoration-style: initial; text-decoration-color: initial;&quot;&gt;qi_value, co_aqi_value, ozone_aqi_value, pm2.5_aqi_value&lt;/span&gt;" style="text;whiteSpace=wrap;html=1;" parent="1" vertex="1">
          <mxGeometry x="270" y="55" width="390" height="40" as="geometry" />
        </mxCell>
        <mxCell id="YiNeve2ob_EBRdgUASXG-8" value="" style="shape=requiredInterface;html=1;verticalLabelPosition=bottom;sketch=0;direction=east;" parent="1" vertex="1">
          <mxGeometry x="620" y="45" width="20" height="50" as="geometry" />
        </mxCell>
        <mxCell id="YiNeve2ob_EBRdgUASXG-9" value="" style="shape=requiredInterface;html=1;verticalLabelPosition=bottom;sketch=0;direction=west;" parent="1" vertex="1">
          <mxGeometry x="260" y="165" width="20" height="50" as="geometry" />
        </mxCell>
        <mxCell id="YiNeve2ob_EBRdgUASXG-10" value="&lt;div style=&quot;text-align: justify;&quot;&gt;&lt;span style=&quot;background-color: initial;&quot;&gt;Data Cleaning dan Scalling Data (StandardScaller)&lt;/span&gt;&lt;/div&gt;" style="text;whiteSpace=wrap;html=1;" parent="1" vertex="1">
          <mxGeometry x="270" y="175" width="390" height="40" as="geometry" />
        </mxCell>
        <mxCell id="YiNeve2ob_EBRdgUASXG-11" value="" style="shape=requiredInterface;html=1;verticalLabelPosition=bottom;sketch=0;direction=east;" parent="1" vertex="1">
          <mxGeometry x="530" y="165" width="20" height="50" as="geometry" />
        </mxCell>
        <mxCell id="YiNeve2ob_EBRdgUASXG-13" value="" style="shape=requiredInterface;html=1;verticalLabelPosition=bottom;sketch=0;direction=west;" parent="1" vertex="1">
          <mxGeometry x="260" y="410" width="20" height="50" as="geometry" />
        </mxCell>
        <mxCell id="YiNeve2ob_EBRdgUASXG-14" value="" style="shape=requiredInterface;html=1;verticalLabelPosition=bottom;sketch=0;direction=east;" parent="1" vertex="1">
          <mxGeometry x="510" y="410" width="20" height="50" as="geometry" />
        </mxCell>
        <mxCell id="YiNeve2ob_EBRdgUASXG-16" value="&lt;div style=&quot;&quot;&gt;&lt;span style=&quot;background-color: initial;&quot;&gt;Menentukan jumlah Cluster menggunakan&amp;nbsp;&lt;/span&gt;&lt;/div&gt;&lt;div style=&quot;&quot;&gt;&lt;span style=&quot;background-color: initial;&quot;&gt;Silhouette Score &amp;amp; Elbow Method (3 Cluster)&lt;/span&gt;&lt;/div&gt;" style="text;whiteSpace=wrap;html=1;align=center;" parent="1" vertex="1">
          <mxGeometry x="270" y="415" width="250" height="40" as="geometry" />
        </mxCell>
        <mxCell id="YiNeve2ob_EBRdgUASXG-22" value="" style="shape=requiredInterface;html=1;verticalLabelPosition=bottom;sketch=0;direction=west;" parent="1" vertex="1">
          <mxGeometry x="260" y="285" width="20" height="50" as="geometry" />
        </mxCell>
        <mxCell id="YiNeve2ob_EBRdgUASXG-23" value="" style="shape=requiredInterface;html=1;verticalLabelPosition=bottom;sketch=0;direction=east;" parent="1" vertex="1">
          <mxGeometry x="630" y="285" width="20" height="50" as="geometry" />
        </mxCell>
        <mxCell id="YiNeve2ob_EBRdgUASXG-24" value="&lt;div style=&quot;text-align: center;&quot;&gt;&lt;span style=&quot;&quot;&gt;K-Means, Kmedoids,&amp;nbsp;Agglomerative Clustering dengan linkage Ward, Fuzzy C-means&lt;/span&gt;&lt;br&gt;&lt;/div&gt;" style="text;whiteSpace=wrap;html=1;" parent="1" vertex="1">
          <mxGeometry x="270" y="290" width="370" height="40" as="geometry" />
        </mxCell>
        <mxCell id="YiNeve2ob_EBRdgUASXG-25" value="" style="shape=requiredInterface;html=1;verticalLabelPosition=bottom;sketch=0;direction=west;" parent="1" vertex="1">
          <mxGeometry x="260" y="525" width="20" height="50" as="geometry" />
        </mxCell>
        <mxCell id="YiNeve2ob_EBRdgUASXG-26" value="" style="shape=requiredInterface;html=1;verticalLabelPosition=bottom;sketch=0;direction=east;" parent="1" vertex="1">
          <mxGeometry x="330" y="525" width="20" height="50" as="geometry" />
        </mxCell>
        <mxCell id="YiNeve2ob_EBRdgUASXG-27" value="&lt;div style=&quot;text-align: center;&quot;&gt;&lt;span style=&quot;&quot;&gt;K-Means&lt;/span&gt;&lt;br&gt;&lt;/div&gt;" style="text;whiteSpace=wrap;html=1;" parent="1" vertex="1">
          <mxGeometry x="280" y="535" width="60" height="40" as="geometry" />
        </mxCell>
      </root>
    </mxGraphModel>
  </diagram>
</mxfile>
